<?xml version="1.0" standalone="no"?> <!DOCTYPE svg PUBLIC "-//W3C//DTD SVG 1.0//EN" "http://www.w3.org/TR/2001/REC-SVG-20010904/DTD/svg10.dtd" > <svg xmlns="http://www.w3.org/2000/svg" width="100%" height="100%">
<defs >
<font horiz-adv-x="512" ><font-face
    font-family="SeoulHangang CEB"
    units-per-em="1024"
    panose-1="2 2 6 3 2 1 1 2 1 1"
    ascent="879"
    descent="-145"
    alphabetic="0" />
<missing-glyph horiz-adv-x="1024" d="M102 -43V777H922V-43H102ZM154 9H870V725H154V9Z" />
<glyph unicode=" " glyph-name="null" horiz-adv-x="307" />
<glyph unicode="!" glyph-name="null" horiz-adv-x="299" d="M225 61Q225 30 203 8T150 -14Q118 -14 96 8T74 61Q74 92 96 114T150 136Q181 136 203 114T225 61ZM82 805H217L189 233Q188 219 179 210T150 201Q132 201 122 209T111 233L82 805Z" />
<glyph unicode="&quot;" glyph-name="null" horiz-adv-x="379" d="M59 826H176L162 589Q161 573 150 563T120 553Q98 552 88 562T77 590L59 826ZM203 826H319L302 590Q302 573 291 563T259 553Q239 553 229 563T218 590L203 826Z" />
<glyph unicode="#" glyph-name="null" horiz-adv-x="574" d="M497 729L452 533H561L544 467H437L407 333H520L501 268H391L340 42H249L300 268H218L167 42H75L126 268H19L38 333H140L171 467H61L81 533H186L230 729H323L279 533H360L404 729H497ZM314 333L345
467H263L232 333H314Z" />
<glyph unicode="$" glyph-name="null" horiz-adv-x="497" d="M200 26Q130 32 88 63Q34 101 27 173H144Q144 131 172 110Q184 100 200 94V375Q120 405 82 444Q37 490 37 566Q37 642 91 694Q133 733 200 742V816H279V742Q340 736 380 708Q430 672 445 598H328Q326
642 302 664Q291 673 279 678V421Q373 386 414 343Q461 294 461 222Q461 129 398 77Q349 35 279 26V-53H200V26ZM279 94Q302 103 321 124Q350 161 350 214Q350 271 322 308Q305 328 279 343V94ZM200 676Q184 668 173 654Q145 622 145 560Q145 504 173 476Q184 463
200 453V676Z" />
<glyph unicode="%" glyph-name="null" horiz-adv-x="784" d="M488 738H577L296 27H207L488 738ZM16 510Q16 600 60 656T177 712Q250 712 294 656T338 510Q338 420 294 365T177 309Q104 309 60 364T16 510ZM240 510Q240 573 223 613T178 653Q152 653 135 613T117
510Q117 448 134 408T178 368Q205 368 222 408T240 510ZM446 251Q446 341 490 397T607 453Q680 453 724 397T768 251Q768 161 724 106T607 50Q535 50 491 105T446 251ZM670 251Q670 314 653 354T608 394Q582 394 565 354T547 251Q547 189 564 149T608 109Q635 109
652 149T670 251Z" />
<glyph unicode="&amp;" glyph-name="null" horiz-adv-x="762" d="M314 270Q291 307 251 378Q215 353 194 323Q158 273 162 214Q166 152 197 120T267 86Q300 84 341 103Q369 116 401 147Q349 213 314 270ZM214 450Q171 538 170 601Q169 671 215 717T346 761Q414
759 455 719T496 616Q496 551 453 507Q416 469 335 426Q373 358 394 323Q423 277 462 221Q473 239 484 263Q507 313 507 342Q507 363 501 373T463 383Q445 383 445 409T462 435H662Q684 435 684 409T660 383Q631 383 622 378T604 336Q577 233 514 149Q558 98 599
91Q610 88 626 92T659 104Q701 127 719 103T714 60Q698 49 667 36T590 22Q518 22 456 82Q374 6 267 6Q169 6 113 65T56 209Q56 296 110 362Q150 411 214 450ZM299 496Q355 527 377 550Q406 582 406 611Q406 646 387 667T340 688Q311 688 291 667T271 601Q271 557
299 496Z" />
<glyph unicode="&apos;" glyph-name="null" horiz-adv-x="298" d="M88 826H210L196 589Q195 573 183 563T151 553Q130 552 117 562T103 590L88 826Z" />
<glyph unicode="(" glyph-name="null" horiz-adv-x="348" d="M76 351Q76 524 134 644T271 813Q308 836 323 814T321 775Q251 708 218 602T185 351Q184 205 217 99T321 -73Q338 -90 323 -112T271 -112Q193 -64 135 57T76 351Z" />
<glyph unicode=")" glyph-name="null" horiz-adv-x="348" d="M272 351Q272 178 214 57T76 -112Q40 -135 25 -113T27 -73Q96 -7 130 99T163 351Q164 496 130 602T27 775Q10 791 25 813T76 813Q156 765 214 645T272 351Z" />
<glyph unicode="*" glyph-name="null" horiz-adv-x="348" d="M174 556Q172 552 166 519T147 466Q136 448 121 442T87 446Q71 456 69 473T78 508Q87 526 112 548T141 576Q138 576 105 564T48 552Q28 552 15 562T1 594Q1 614 14 625T48 636Q72 636 104 625T141 614Q139
618 113 640T78 678Q67 699 69 716T88 743Q104 752 120 747T147 721Q160 704 166 670T174 632Q176 637 182 670T201 720Q210 741 226 746T258 743Q275 733 278 716T270 678Q261 663 235 641T207 614Q211 614 243 625T298 636Q321 636 334 625T347 594Q347 573 334
563T298 552Q276 552 243 564T207 576Q210 571 235 549T270 508Q282 490 279 473T260 446Q242 435 226 441T201 466Q188 485 182 518T174 556Z" />
<glyph unicode="+" glyph-name="null" horiz-adv-x="528" d="M218 365H36V438H218V645H307V438H490V365H307V141H218V365Z" />
<glyph unicode="," glyph-name="null" horiz-adv-x="281" d="M65 61Q65 92 87 114T140 136Q171 136 193 114T220 64Q227 10 202 -41T126 -121Q102 -136 86 -121T92 -88Q108 -75 120 -56T137 -13Q138 -10 127 -10Q106 -10 86 11T65 61Z" />
<glyph unicode="-" glyph-name="null" horiz-adv-x="379" d="M37 444H342V359H37V444Z" />
<glyph unicode="." glyph-name="null" horiz-adv-x="281" d="M216 61Q216 30 194 8T140 -14Q109 -14 87 8T65 61Q65 92 87 114T140 136Q172 136 194 114T216 61Z" />
<glyph unicode="/" glyph-name="null" horiz-adv-x="375" d="M274 823H369L100 -123H5L274 823Z" />
<glyph unicode="0" glyph-name="null" horiz-adv-x="461" d="M13 383Q13 555 69 655T230 756Q336 756 391 656T447 383Q447 211 392 111T230 11Q125 11 69 111T13 383ZM125 383Q125 225 156 155T230 84Q272 84 304 154T336 383Q336 542 304 612T230 682Q188 682
157 612T125 383Z" />
<glyph unicode="1" glyph-name="null" horiz-adv-x="461" d="M159 622L140 615Q103 597 90 623T99 661L247 753H305V18H197V581Q197 615 188 622T159 622Z" />
<glyph unicode="2" glyph-name="null" horiz-adv-x="461" d="M24 78Q40 96 62 119Q123 184 214 323T306 552Q306 616 280 649T206 682Q170 682 145 657T113 575H19Q28 667 81 712T208 758Q309 758 363 701T417 548Q417 464 343 341T166 100H280Q315 100 336 109T369
165Q374 191 403 187T433 162L423 24H24V78Z" />
<glyph unicode="3" glyph-name="null" horiz-adv-x="461" d="M332 401Q374 382 403 331T430 217Q426 134 365 73T183 11Q142 11 99 23T20 62V150Q70 113 110 101T179 89Q238 89 278 125T319 234Q319 279 304 305T270 342Q253 354 231 359T185 364Q153 364 154
400T194 437Q207 437 217 437T239 441Q267 449 290 479T315 563Q317 620 286 650T208 681Q175 681 150 661T116 595H25Q36 672 86 714T214 756Q309 756 364 703T420 566Q420 501 391 457T332 401Z" />
<glyph unicode="4" glyph-name="null" horiz-adv-x="461" d="M265 222H3V288L264 756H371V296H458V222H371V23H265V222ZM108 296H265V584L108 296Z" />
<glyph unicode="5" glyph-name="null" horiz-adv-x="461" d="M147 448Q173 463 200 467T263 469Q336 465 388 410T440 259Q440 153 376 86T200 15Q152 13 105 26T27 62V141Q88 101 137 93T211 92Q266 104 300 148T335 265Q335 327 307 360T234 396Q210 398 183
386T139 343H42L59 745H397V669H156L147 448Z" />
<glyph unicode="6" glyph-name="null" horiz-adv-x="461" d="M131 413Q133 415 135 418Q176 465 255 466Q349 466 401 401T453 240Q453 138 396 75T229 11Q129 10 74 85T19 337Q19 481 46 565T119 695Q173 752 261 755T413 715V637Q360 671 328 677T279 682Q217
679 173 608Q138 549 131 413ZM130 292Q134 174 162 131Q195 80 234 80Q280 80 311 120T343 236Q343 319 316 356T251 393Q206 393 161 342Q143 324 130 292Z" />
<glyph unicode="7" glyph-name="null" horiz-adv-x="461" d="M322 667H146Q126 667 110 654T86 599Q81 572 52 572T23 603L25 740H441V690L217 17H110L322 667Z" />
<glyph unicode="8" glyph-name="null" horiz-adv-x="461" d="M31 565Q31 654 84 705T230 756Q324 756 377 703T430 561Q430 478 377 428Q362 414 345 405Q369 392 388 371Q445 311 445 223Q445 121 387 66T230 10Q132 10 74 65T15 223Q15 311 73 371Q92 392 117
405Q98 415 84 430Q31 482 31 565ZM124 223Q124 153 156 118T230 82Q272 82 304 117T337 223Q337 292 305 329T230 367Q188 367 156 330T124 223ZM138 565Q138 504 166 472T230 440Q266 440 294 470T323 561Q323 621 295 652T230 683Q195 683 167 654T138 565Z"
/>
<glyph unicode="9" glyph-name="null" horiz-adv-x="461" d="M328 349Q322 342 313 336Q272 302 211 302Q118 302 66 365T14 529Q14 631 69 694T228 758Q324 759 380 672T436 397Q436 282 408 195T331 65Q274 17 192 13T45 56V131Q92 102 127 97T178 91Q241 91
285 155Q323 210 328 349ZM328 457Q323 572 298 622Q267 683 222 686Q181 690 153 645T124 532Q124 448 155 412T218 376Q263 376 305 421Q318 436 328 457Z" />
<glyph unicode=":" glyph-name="null" horiz-adv-x="298" d="M224 536Q224 505 203 484T150 462Q118 462 97 483T75 536Q75 567 96 588T150 610Q181 610 202 589T224 536ZM224 163Q224 133 203 111T150 89Q118 89 97 111T75 163Q75 194 96 215T150 237Q181 237
202 216T224 163Z" />
<glyph unicode=";" glyph-name="null" horiz-adv-x="298" d="M224 536Q224 505 203 484T150 462Q118 462 97 483T75 536Q75 567 96 588T150 610Q181 610 202 589T224 536ZM75 162Q75 193 96 214T150 236Q180 236 202 215T228 165Q236 111 210 61T134 -19Q113 -33
97 -19T102 13Q118 26 130 45T147 88Q148 93 137 93Q116 93 96 113T75 162Z" />
<glyph unicode="&lt;" glyph-name="null" horiz-adv-x="528" d="M85 341V415L496 785V678L166 378L496 78V-28L85 341Z" />
<glyph unicode="=" glyph-name="null" horiz-adv-x="528" d="M36 340H493V262H36V340ZM36 541H493V462H36V541Z" />
<glyph unicode="&gt;" glyph-name="null" horiz-adv-x="528" d="M443 341L33 -28V78L361 378L33 678V785L443 415V341Z" />
<glyph unicode="?" glyph-name="null" horiz-adv-x="465" d="M278 61Q278 30 256 8T202 -14Q170 -14 148 8T126 61Q126 92 148 114T202 136Q233 136 255 114T278 61ZM155 304Q155 351 171 384T218 454L273 519Q294 545 308 567T323 635Q323 690 295 716T228 742Q199
742 174 717T148 640H34Q34 710 85 759T226 808Q325 808 378 759T431 630Q431 582 416 548T359 466Q289 393 275 376T253 343Q247 331 245 319T242 277V220Q242 206 229 196T197 186Q177 186 166 195T155 220V304Z" />
<glyph unicode="@" glyph-name="null" horiz-adv-x="911" d="M771 -13Q722 -68 642 -104T463 -140Q256 -140 155 -16T62 273Q74 477 194 619T492 762Q657 762 757 659T850 367Q846 252 785 156T637 26Q578 2 535 19T493 67Q482 57 453 42T384 27Q310 27 272 76T239
198Q247 322 321 431T500 541Q540 541 569 526T611 492L620 520H681Q720 520 708 481L597 154Q583 105 597 98T646 112Q691 140 723 211T760 363Q768 524 691 606T504 690Q381 691 284 588T167 321Q143 138 228 34T464 -70Q538 -70 603 -45T714 29Q742 54 769 35T771
-13ZM339 207Q331 151 350 127T393 102Q423 101 456 134T515 233Q539 292 551 339T563 408Q563 430 547 449T504 468Q461 468 407 390T339 207Z" />
<glyph unicode="A" glyph-name="null" horiz-adv-x="546" d="M447 24L374 254H164L91 24H-12L181 620Q197 672 193 680T174 693Q155 697 145 703T134 725Q134 749 171 749H319L561 24H447ZM350 328L267 585L186 328H350Z" />
<glyph unicode="B" glyph-name="null" horiz-adv-x="562" d="M182 642V444H280Q336 444 368 472T400 563Q400 618 364 648T273 678H222Q182 678 182 642ZM182 131Q182 95 223 95H275Q343 95 387 128T432 226Q432 301 390 335T282 370H182V131ZM293 24H76V634Q76
665 71 676T52 692Q35 697 25 704T15 724Q15 749 49 749H283Q391 749 451 703T511 572Q511 511 481 469T414 413Q465 400 504 352T543 226Q543 135 481 80T293 24Z" />
<glyph unicode="C" glyph-name="null" horiz-adv-x="582" d="M553 69Q529 52 483 37T386 18Q218 8 118 117T18 401Q18 560 97 661T331 762Q429 762 496 710T563 589H447Q445 632 412 658T327 685Q248 685 190 612T132 418Q132 237 217 162T399 97Q432 100 458
108T504 127Q526 140 543 137T567 118Q574 105 569 91T553 69Z" />
<glyph unicode="D" glyph-name="null" horiz-adv-x="596" d="M76 634Q76 666 70 678T52 693Q36 697 27 703T17 724Q17 749 53 749H185Q225 749 275 747T358 738Q456 719 517 635T578 383Q578 268 548 200T468 92Q421 55 362 40T216 24H76V634ZM254 95Q347 95 407
164T467 383Q467 528 417 603T268 678H224Q183 678 183 641V131Q183 95 224 95H254Z" />
<glyph unicode="E" glyph-name="null" horiz-adv-x="532" d="M183 435H297Q343 435 363 449T383 494Q383 510 413 510T444 494V304Q444 287 414 287T383 304Q383 334 363 350T297 366H183V131Q183 95 225 95H357Q398 95 412 116T431 160Q436 187 468 184T500 158L493
24H76V634Q76 666 72 677T54 692Q38 697 28 703T17 724Q17 749 52 749H477L482 624Q482 598 450 598T416 624Q414 641 400 659T340 678H224Q183 678 183 641V435Z" />
<glyph unicode="F" glyph-name="null" horiz-adv-x="497" d="M183 439H297Q343 439 363 453T383 498Q383 514 413 514T444 498V308Q444 291 414 291T383 308Q383 338 363 354T296 370H183V24H76V634Q76 666 70 678T52 693Q39 697 28 703T17 724Q17 749 52 749H477L482
624Q482 598 452 598T416 623Q409 651 396 665T340 679H224Q183 679 183 640V439Z" />
<glyph unicode="G" glyph-name="null" horiz-adv-x="600" d="M561 372V76Q488 26 374 20T183 59Q112 102 66 185T18 394Q17 558 97 660T331 762Q429 762 496 710T563 589H450Q447 632 411 658T327 685Q251 685 191 616T130 410Q130 261 193 182T353 98Q372 97
399 99T454 112V264Q454 318 433 332T356 348Q335 348 335 377T357 406H526Q561 406 561 372Z" />
<glyph unicode="H" glyph-name="null" horiz-adv-x="608" d="M183 24H76V633Q76 664 72 675T55 691Q38 697 24 701T10 721Q10 748 49 748H146Q183 748 183 716V444H440V749H548V24H440V370H183V24Z" />
<glyph unicode="I" glyph-name="null" horiz-adv-x="246" d="M184 24H77V634Q77 665 73 675T56 691Q38 697 25 702T11 722Q11 749 50 749H147Q184 749 184 717V24Z" />
<glyph unicode="J" glyph-name="null" horiz-adv-x="409" d="M242 221V635Q242 665 238 676T221 691Q205 695 191 700T176 723Q176 749 215 749H312Q349 749 349 717V219Q349 113 299 66T164 18Q72 18 27 57T-18 168H90Q91 122 111 107T163 91Q197 91 219 119T242 221Z" />
<glyph unicode="K" glyph-name="null" horiz-adv-x="514" d="M185 24H78V633Q78 664 74 676T57 691Q41 696 27 700T12 721Q12 748 51 748H148Q185 748 185 716V468L406 748H473Q492 748 497 735T492 709L258 419L555 24H431L185 356V24Z" />
<glyph unicode="L" glyph-name="null" horiz-adv-x="478" d="M184 141Q184 102 226 102H350Q386 102 401 117T423 177Q427 202 459 200T492 174L484 24H77V633Q77 664 73 675T56 690Q39 694 25 700T11 722Q11 748 50 748H147Q184 748 184 716V141Z" />
<glyph unicode="M" glyph-name="null" horiz-adv-x="758" d="M220 749L381 174L548 749H700V24H596V581L438 67Q431 43 418 34T384 24H324L172 577V24H74V635Q74 665 71 676T54 692Q38 698 29 702T19 722Q19 749 58 749H220Z" />
<glyph unicode="N" glyph-name="null" horiz-adv-x="608" d="M200 749L445 213V749H548V70Q548 24 493 24H428L173 574V24H76V635Q76 665 73 676T57 692Q40 697 28 702T16 722Q16 749 54 749H200Z" />
<glyph unicode="O" glyph-name="null" horiz-adv-x="653" d="M18 391Q18 554 99 658T327 762Q472 762 553 658T635 391Q635 227 554 123T327 18Q181 18 100 122T18 391ZM130 391Q130 249 186 172T327 95Q411 95 467 172T523 391Q523 532 467 609T327 686Q243 686
187 609T130 391Z" />
<glyph unicode="P" glyph-name="null" horiz-adv-x="525" d="M54 692Q34 697 24 704T14 724Q14 749 44 749H279Q393 749 457 694T521 547Q521 442 452 388T261 334H219Q195 334 195 370T217 406H252Q326 406 368 441T411 547Q412 608 371 643T279 679H223Q183
679 183 640V24H76V634Q76 666 71 677T54 692Z" />
<glyph unicode="Q" glyph-name="null" horiz-adv-x="653" d="M400 25Q414 -1 447 -17Q493 -40 591 -22V-79Q557 -89 535 -91T486 -93Q395 -93 338 -60Q288 -33 260 24Q162 43 100 122Q18 227 18 391Q18 554 99 658T327 762Q472 762 553 658T635 391Q635 227 554
122Q494 45 400 25ZM130 391Q130 249 186 172T327 95Q411 95 467 172T523 391Q523 532 467 609T327 686Q243 686 187 609T130 391Z" />
<glyph unicode="R" glyph-name="null" horiz-adv-x="525" d="M279 679H223Q183 679 183 640V24H76V634Q76 666 70 678T54 692Q34 697 24 704T14 724Q14 749 44 749H279Q393 749 457 695T521 549Q521 450 461 395T322 337L525 24H398L201 345Q185 368 194 387T226
406H256Q326 406 368 442T411 549Q412 610 371 644T279 679Z" />
<glyph unicode="S" glyph-name="null" horiz-adv-x="461" d="M328 226Q325 269 292 302T186 374Q106 414 63 464T23 591Q25 665 80 713T230 762Q284 762 319 755T399 736V646Q347 669 307 679T232 689Q195 689 164 662T133 587Q133 543 169 510T284 434Q361 392
400 342T439 224Q439 140 381 81T210 17Q168 15 121 24T45 53Q27 64 21 80T22 114Q30 131 48 136T93 126Q115 115 148 106T209 98Q270 102 301 137T328 226Z" />
<glyph unicode="T" glyph-name="null" horiz-adv-x="520" d="M137 678Q90 678 75 650T59 597Q58 573 25 573T-8 599L-3 749H523L528 599Q528 574 495 574T460 599Q459 623 444 650T382 678H313V24H206V678H137Z" />
<glyph unicode="U" glyph-name="null" horiz-adv-x="611" d="M76 292V634Q76 664 72 675T55 690Q39 694 25 701T10 722Q10 748 49 748H146Q183 748 183 716V309Q183 202 215 149T316 96Q381 96 418 143T456 307V749H557V306Q557 148 493 83T316 18Q204 18 140 85T76 292Z" />
<glyph unicode="V" glyph-name="null" horiz-adv-x="568" d="M25 693Q11 698 3 703T-6 724Q-6 749 33 749H131L311 193L488 749H547Q570 749 577 737T580 707L349 22H263L61 619Q48 658 42 673T25 693Z" />
<glyph unicode="W" glyph-name="null" horiz-adv-x="778" d="M656 22H555L421 581L285 22H174L62 620Q54 658 46 675T25 696Q13 700 4 706T-5 726Q-5 749 33 749H147L240 209L367 749H479L606 211L693 749H761Q776 749 783 742T788 719L656 22Z" />
<glyph unicode="X" glyph-name="null" horiz-adv-x="497" d="M194 398L79 618Q59 658 46 674T23 693Q10 697 1 703T-9 724Q-9 749 29 749H130L255 499L390 749H453Q473 749 480 735T479 706L311 409L516 24H395L250 301L105 24H-6L194 398Z" />
<glyph unicode="Y" glyph-name="null" horiz-adv-x="527" d="M282 460L450 749H508Q529 749 535 736T532 708L331 366V24H223V366L73 618Q49 657 41 671T23 693Q12 700 3 704T-6 723Q-6 749 33 749H120L282 460Z" />
<glyph unicode="Z" glyph-name="null" horiz-adv-x="523" d="M15 80L356 677H174Q130 677 119 658T102 601Q98 576 64 576T31 604L36 749H483V694L136 96H347Q398 96 409 122T424 181Q426 206 461 206T497 180L493 24H15V80Z" />
<glyph unicode="[" glyph-name="null" horiz-adv-x="326" d="M180 1Q180 -58 229 -58H271Q297 -58 297 -92Q297 -125 268 -125H114Q81 -125 81 -95V794Q81 824 114 824H268Q297 824 297 791Q297 757 271 757H229Q180 757 180 698V1Z" />
<glyph unicode="\" glyph-name="null" horiz-adv-x="911" d="M686 25H593L509 362H415L330 25H227L165 362H38V437H151L122 592Q114 628 106 643T86 663Q74 667 65 673T56 694Q56 715 94 715H204L251 437H346L411 715H518L583 437H676L720 715H785Q798 715 806
709T812 686L765 437H880V362H751L686 25ZM490 437L462 550L433 437H490ZM263 362L291 199L329 362H263ZM600 362L638 201L664 362H600Z" />
<glyph unicode="]" glyph-name="null" horiz-adv-x="326" d="M145 1V698Q145 757 96 757H54Q29 757 29 791Q29 824 56 824H211Q245 824 245 794V-95Q245 -125 213 -125H66Q29 -122 29 -90Q29 -58 54 -58H96Q145 -58 145 1Z" />
<glyph unicode="^" glyph-name="null" horiz-adv-x="433" d="M174 774H261L404 518H305L218 679L128 518H28L174 774Z" />
<glyph unicode="_" glyph-name="null" horiz-adv-x="461" d="M-10 -21H472V-93H-10V-21Z" />
<glyph unicode="`" glyph-name="null" horiz-adv-x="281" d="M70 703Q56 726 63 745T83 774Q100 784 122 782T159 758L211 615Q220 587 194 575T150 587L70 703Z" />
<glyph unicode="a" glyph-name="null" horiz-adv-x="483" d="M336 69Q325 54 289 36T191 17Q124 17 80 56T35 160Q35 245 111 296T304 347H336V371Q336 422 309 451T240 480Q203 480 178 461T153 396H41Q41 467 96 508T243 549Q339 549 390 501T441 370V24H336V69ZM336
274Q243 277 192 249T140 170Q140 128 162 111T212 94Q260 94 298 127T336 208V274Z" />
<glyph unicode="b" glyph-name="null" d="M383 278Q383 371 351 423T267 475Q229 475 197 436T165 333V238Q165 155 198 121T269 86Q314 86 348 136T383 278ZM164 507Q212 549 284 549Q383 549 436 476T489 281Q489 167 433 92T275 17Q198 17 152 60Q131 24 80
24H59V657Q59 688 54 699T38 715Q23 721 14 726T4 745Q4 771 43 771H126Q164 771 164 740V507Z" />
<glyph unicode="c" glyph-name="null" horiz-adv-x="483" d="M430 53Q407 36 365 26T264 18Q164 23 94 96T23 301Q23 415 86 482T258 549Q345 549 398 507T456 397H346Q346 437 322 458T253 480Q206 480 170 433T133 301Q133 207 176 151T289 87Q312 84 340 89T391
105Q415 116 428 114T449 99Q455 86 448 74T430 53Z" />
<glyph unicode="d" glyph-name="null" d="M129 278Q129 186 163 137T241 87Q282 87 314 132T347 268V333Q347 400 315 437T237 475Q194 475 162 426T129 278ZM348 59Q303 17 237 17Q132 17 78 92T23 281Q23 403 77 476T228 549Q301 549 348 514V657Q348 688 343
700T328 715Q312 719 303 725T293 746Q293 771 332 771H415Q453 771 453 740V24H348V59Z" />
<glyph unicode="e" glyph-name="null" horiz-adv-x="483" d="M134 264Q137 196 178 145T289 87Q312 84 340 89T393 106Q417 117 429 113T449 96Q455 84 448 71T429 51Q403 35 360 25T264 18Q164 24 94 97T23 301Q23 417 86 483T256 549Q346 549 404 489T462 305V264H134ZM134
335H355Q355 410 325 445T254 480Q207 480 172 441T134 335Z" />
<glyph unicode="f" glyph-name="null" horiz-adv-x="344" d="M85 467H0V536H85V641Q85 707 123 743T231 779Q305 779 342 743T380 647H275Q274 679 263 697T230 714Q213 713 202 696T190 635V536H326V467H190V24H85V467Z" />
<glyph unicode="g" glyph-name="null" d="M128 279Q128 198 162 155T239 112Q283 112 315 150T348 268V333Q348 400 314 437T237 475Q191 475 160 429T128 279ZM349 79Q304 41 237 41Q134 41 79 112T23 281Q23 403 78 476T228 549Q303 549 351 505Q358 536 399
536H468Q507 536 507 511Q507 497 492 492T466 483Q461 482 458 474T454 427V51Q454 -41 402 -94T241 -147Q136 -147 92 -108T44 -1H150Q152 -39 175 -59T247 -79Q290 -79 319 -48T349 46V79Z" />
<glyph unicode="h" glyph-name="null" d="M165 24H59V657Q59 688 54 699T40 714Q25 720 15 725T4 745Q4 771 43 771H127Q165 771 165 740V473Q179 491 199 506Q248 544 313 544Q379 544 421 498T464 338V24H358V341Q358 410 340 435T292 461Q245 461 197 399Q177
373 165 336V24Z" />
<glyph unicode="i" glyph-name="null" horiz-adv-x="230" d="M174 24H68V421Q68 452 63 464T47 480Q31 485 22 491T12 509Q12 536 51 536H136Q174 536 174 502V24ZM181 698Q181 669 161 649T111 628Q81 628 61 648T40 698Q40 726 60 746T111 767Q140 767 160 747T181
698Z" />
<glyph unicode="j" glyph-name="null" horiz-adv-x="263" d="M208 40Q208 -65 168 -106T52 -147Q-28 -147 -65 -110T-102 -7H5Q5 -54 21 -69T52 -84Q75 -84 88 -60T101 40V422Q101 452 98 464T84 479Q67 484 57 489T46 510Q46 536 85 536H170Q208 536 208 503V40ZM218
698Q218 669 198 649T147 628Q118 628 98 648T77 698Q77 726 97 746T147 767Q177 767 197 747T218 698Z" />
<glyph unicode="k" glyph-name="null" horiz-adv-x="456" d="M165 24H59V657Q59 688 55 699T42 714Q27 719 16 725T4 746Q4 771 43 771H127Q165 771 165 740V366L339 536H463L238 321L482 24H358L165 254V24Z" />
<glyph unicode="l" glyph-name="null" horiz-adv-x="230" d="M174 24H68V657Q68 688 63 699T47 715Q32 721 22 727T12 747Q12 771 51 771H136Q174 771 174 740V24Z" />
<glyph unicode="m" glyph-name="null" horiz-adv-x="731" d="M164 24H59V421Q59 452 54 464T39 480Q23 484 14 490T4 510Q4 536 43 536H126Q164 536 164 502V482Q173 494 185 505Q224 543 287 544Q355 544 390 497Q400 481 409 459Q420 479 437 498Q480 544 546
544Q614 544 648 496T683 342V24H579V339Q579 408 566 436T524 464Q489 464 450 403Q432 375 424 340V24H319V339Q319 409 306 436T266 464Q229 463 189 403Q171 374 164 338V24Z" />
<glyph unicode="n" glyph-name="null" d="M164 24H60V421Q60 452 57 463T42 479Q26 485 15 490T4 510Q4 536 43 536H126Q164 536 164 502V472Q179 492 200 508Q246 544 313 544Q379 544 421 498T464 338V24H358V341Q358 410 340 435T292 461Q247 460 203 405Q178
375 164 330V24Z" />
<glyph unicode="o" glyph-name="null" d="M20 283Q20 401 81 475T256 549Q369 549 430 475T492 283Q492 165 431 91T256 17Q143 17 82 91T20 283ZM133 283Q133 183 169 135T256 86Q306 86 342 134T379 283Q379 383 343 431T256 480Q206 480 170 432T133 283Z" />
<glyph unicode="p" glyph-name="null" d="M59 421Q59 452 54 464T41 479Q25 485 15 491T4 510Q4 536 43 536H126Q162 536 164 507Q212 549 284 549Q383 549 436 476T489 281Q489 167 433 92T275 17Q208 17 164 51V-147H59V421ZM383 278Q383 371 351 423T267 475Q229
475 197 436T165 333V238Q165 158 197 122T269 86Q313 86 348 136T383 278Z" />
<glyph unicode="q" glyph-name="null" d="M129 278Q129 178 162 135T237 92Q275 92 309 134T344 261V333Q344 397 312 436T239 475Q189 475 159 427T129 278ZM347 65Q301 17 230 17Q127 17 75 92T23 281Q23 403 77 476T230 549Q306 549 354 503Q358 513 365 523Q383
549 409 549H453V-147H347V65Z" />
<glyph unicode="r" glyph-name="null" horiz-adv-x="361" d="M71 421Q71 452 66 464T50 480Q36 484 25 490T14 510Q14 536 53 536H135Q174 536 174 502V482Q186 497 203 509Q246 544 313 544H357V448Q268 467 212 421Q188 403 174 370V24H71V421Z" />
<glyph unicode="s" glyph-name="null" horiz-adv-x="418" d="M190 258Q119 283 75 320T31 411Q31 476 77 514T214 555Q253 556 291 549T364 527V424Q318 461 283 473T216 485Q179 484 157 469T134 422Q133 394 163 373T249 330Q328 300 362 264T396 178Q396 102
344 60T196 17Q150 17 110 30T49 61Q29 78 28 92T33 116Q45 134 63 135T99 121Q118 106 145 97T197 88Q251 91 274 117T293 180Q291 198 270 218T190 258Z" />
<glyph unicode="t" glyph-name="null" horiz-adv-x="326" d="M180 721V536H314V467H181V151Q181 114 195 100T241 86Q256 86 270 87T324 98V27Q296 18 266 16T220 14Q171 14 142 24T97 56Q82 75 79 105T76 169V467H3V536H76V618L180 721Z" />
<glyph unicode="u" glyph-name="null" d="M462 24H356V83Q346 72 335 61Q286 17 213 17Q148 17 104 63T59 219V422Q59 452 55 464T42 479Q27 484 16 489T4 510Q4 536 43 536H127Q165 536 165 504V220Q165 151 184 125T234 99Q287 99 328 151Q346 176 356 211V421Q356
452 352 464T336 480Q321 485 311 491T301 509Q301 536 340 536H424Q462 536 462 502V24Z" />
<glyph unicode="v" glyph-name="null" horiz-adv-x="466" d="M257 185L378 536H430Q458 536 464 522T466 493L290 21H219L44 448Q37 464 34 473T22 486Q9 490 1 495T-7 515Q-7 536 32 536H123L257 185Z" />
<glyph unicode="w" glyph-name="null" horiz-adv-x="636" d="M507 21H426L324 362L229 21H150L38 448Q33 463 30 473T18 487Q9 492 0 497T-9 514Q-9 536 28 536H118L195 210L279 531H374L465 206L547 536H603Q620 536 628 528T633 503L507 21Z" />
<glyph unicode="x" glyph-name="null" horiz-adv-x="442" d="M426 499L285 295L463 24H347L225 209L96 24H-7L172 291L79 433Q69 448 56 465T36 486Q19 494 12 499T4 517Q4 536 44 536H126L230 377L337 536H403Q422 536 428 524T426 499Z" />
<glyph unicode="y" glyph-name="null" horiz-adv-x="436" d="M85 -145Q34 -135 6 -98T-23 5H78Q78 -22 81 -36T90 -58Q97 -67 107 -71T126 -73Q141 -71 153 -52T178 3L198 62L63 406Q53 438 43 460T23 486Q10 490 1 495T-8 513Q-8 536 31 536H128L248 209L357
536H418Q437 536 444 524T446 497L267 -17Q236 -109 189 -131T85 -145Z" />
<glyph unicode="z" glyph-name="null" horiz-adv-x="446" d="M365 140Q368 151 373 160T397 169Q416 169 423 161T430 139L423 25H17V78L292 469H161Q129 469 115 461T91 428Q88 419 82 409T54 399Q41 399 35 407T30 429L34 537H416V485L140 94H275Q318 94 338
106T365 140Z" />
<glyph unicode="{" glyph-name="null" horiz-adv-x="416" d="M87 370Q137 380 162 403T187 480Q187 508 171 585T179 712Q205 758 248 786T350 820Q375 821 380 798T355 763Q330 756 307 737T274 680Q263 640 272 585T282 503Q282 446 262 408T204 350Q241 329
261 291T282 196Q282 169 273 114T274 19Q284 -18 307 -38T355 -64Q385 -74 380 -97T350 -120Q291 -115 248 -88T179 -13Q154 36 170 113T187 219Q187 272 162 295T87 329V370Z" />
<glyph unicode="|" glyph-name="null" horiz-adv-x="310" d="M112 810H199V-111H112V810Z" />
<glyph unicode="}" glyph-name="null" horiz-adv-x="416" d="M329 329Q279 319 254 296T228 219Q228 190 245 113T234 -13Q211 -60 168 -87T65 -120Q41 -121 36 -98T59 -64Q85 -58 108 -38T141 19Q153 59 144 114T134 196Q134 253 154 291T212 350Q175 370 155
408T134 503Q134 529 143 584T141 680Q131 717 108 736T59 763Q31 774 36 797T65 820Q125 814 168 786T234 712Q262 663 245 586T228 480Q228 427 253 404T329 370V329Z" />
<glyph unicode="~" glyph-name="null" horiz-adv-x="545" d="M507 507Q507 401 470 351T371 301Q336 301 308 315T246 368Q216 405 202 413T178 422Q158 422 144 399T128 300H39Q39 407 78 457T176 507Q212 507 240 493T300 441Q324 411 339 399T367 386Q389 386
403 411T417 507H507Z" />
</font>
</defs>
</svg>
